<svg width="111" height="102" viewBox="0 0 111 102" fill="none" xmlns="http://www.w3.org/2000/svg">
<g filter="url(#filter0_d_60_153)">
<ellipse cx="55.5" cy="47" rx="51.5" ry="47" fill="#FDF9F9"/>
</g>
<path d="M87 30.6364V67H24.1875V59.7273H20V27H78.625V30.6364H87ZM70.25 30.6364C70.25 31.1477 70.359 31.6212 70.5771 32.0568C70.7952 32.4924 71.0897 32.8712 71.4604 33.1932C71.8312 33.5152 72.2783 33.7803 72.8018 33.9886C73.3252 34.197 73.8704 34.2917 74.4375 34.2727V30.6364H70.25ZM24.1875 34.2727C24.7764 34.2727 25.3216 34.178 25.8232 33.9886C26.3249 33.7992 26.7611 33.5436 27.1318 33.2216C27.5026 32.8996 27.8079 32.5114 28.0479 32.0568C28.2878 31.6023 28.3968 31.1288 28.375 30.6364H24.1875V34.2727ZM24.1875 48.8182C25.3434 48.8182 26.423 49.0076 27.4263 49.3864C28.4295 49.7652 29.3237 50.286 30.1089 50.9489C30.894 51.6117 31.4938 52.3788 31.9082 53.25C32.3226 54.1212 32.5407 55.0682 32.5625 56.0909H66.0625C66.0625 55.0871 66.2806 54.1496 66.7168 53.2784C67.153 52.4072 67.7528 51.6307 68.5161 50.9489C69.2795 50.267 70.1628 49.7462 71.166 49.3864C72.1693 49.0265 73.2598 48.8371 74.4375 48.8182V37.9091C73.2816 37.9091 72.202 37.7197 71.1987 37.3409C70.1955 36.9621 69.3013 36.4413 68.5161 35.7784C67.731 35.1155 67.1312 34.3485 66.7168 33.4773C66.3024 32.6061 66.0843 31.6591 66.0625 30.6364H32.5625C32.5625 31.6402 32.3444 32.5777 31.9082 33.4489C31.472 34.3201 30.8722 35.0966 30.1089 35.7784C29.3455 36.4602 28.4622 36.9811 27.459 37.3409C26.4557 37.7008 25.3652 37.8902 24.1875 37.9091V48.8182ZM74.4375 52.4545C73.8486 52.4545 73.3034 52.5492 72.8018 52.7386C72.3001 52.928 71.8639 53.1837 71.4932 53.5057C71.1224 53.8277 70.8171 54.2159 70.5771 54.6705C70.3372 55.125 70.2282 55.5985 70.25 56.0909H74.4375V52.4545ZM24.1875 56.0909H28.375C28.375 55.5795 28.266 55.1061 28.0479 54.6705C27.8298 54.2348 27.5353 53.8561 27.1646 53.5341C26.7938 53.2121 26.3467 52.947 25.8232 52.7386C25.2998 52.5303 24.7546 52.4356 24.1875 52.4545V56.0909ZM82.8125 34.2727H78.625V59.7273H28.375V63.3636H82.8125V34.2727ZM34.6562 45.1818C34.0892 45.1818 33.5985 45.0019 33.1841 44.642C32.7697 44.2822 32.5625 43.8561 32.5625 43.3636C32.5625 42.8712 32.7697 42.4451 33.1841 42.0852C33.5985 41.7254 34.0892 41.5455 34.6562 41.5455C35.2233 41.5455 35.714 41.7254 36.1284 42.0852C36.5428 42.4451 36.75 42.8712 36.75 43.3636C36.75 43.8561 36.5428 44.2822 36.1284 44.642C35.714 45.0019 35.2233 45.1818 34.6562 45.1818ZM63.9688 45.1818C63.4017 45.1818 62.911 45.0019 62.4966 44.642C62.0822 44.2822 61.875 43.8561 61.875 43.3636C61.875 42.8712 62.0822 42.4451 62.4966 42.0852C62.911 41.7254 63.4017 41.5455 63.9688 41.5455C64.5358 41.5455 65.0265 41.7254 65.4409 42.0852C65.8553 42.4451 66.0625 42.8712 66.0625 43.3636C66.0625 43.8561 65.8553 44.2822 65.4409 44.642C65.0265 45.0019 64.5358 45.1818 63.9688 45.1818ZM49.3125 52.4545C48.1566 52.4545 47.077 52.2652 46.0737 51.8864C45.0705 51.5076 44.1763 50.9867 43.3911 50.3239C42.606 49.661 42.0062 48.8939 41.5918 48.0227C41.1774 47.1515 40.9593 46.2045 40.9375 45.1818V41.5455C40.9375 40.5417 41.1556 39.6042 41.5918 38.733C42.028 37.8617 42.6278 37.0852 43.3911 36.4034C44.1545 35.7216 45.0378 35.2008 46.041 34.8409C47.0443 34.4811 48.1348 34.2917 49.3125 34.2727C50.4684 34.2727 51.548 34.4621 52.5513 34.8409C53.5545 35.2197 54.4487 35.7405 55.2339 36.4034C56.019 37.0663 56.6188 37.8333 57.0332 38.7045C57.4476 39.5758 57.6657 40.5227 57.6875 41.5455V45.1818C57.6875 46.1856 57.4694 47.1231 57.0332 47.9943C56.597 48.8655 55.9972 49.642 55.2339 50.3239C54.4705 51.0057 53.5872 51.5265 52.584 51.8864C51.5807 52.2462 50.4902 52.4356 49.3125 52.4545ZM45.125 45.1818C45.125 45.6932 45.234 46.1667 45.4521 46.6023C45.6702 47.0379 45.9647 47.4167 46.3354 47.7386C46.7062 48.0606 47.1533 48.3258 47.6768 48.5341C48.2002 48.7424 48.7454 48.8371 49.3125 48.8182C49.9014 48.8182 50.4466 48.7235 50.9482 48.5341C51.4499 48.3447 51.8861 48.089 52.2568 47.767C52.6276 47.4451 52.9329 47.0568 53.1729 46.6023C53.4128 46.1477 53.5218 45.6742 53.5 45.1818V41.5455C53.5 41.0341 53.391 40.5606 53.1729 40.125C52.9548 39.6894 52.6603 39.3106 52.2896 38.9886C51.9188 38.6667 51.4717 38.4015 50.9482 38.1932C50.4248 37.9848 49.8796 37.8902 49.3125 37.9091C48.7236 37.9091 48.1784 38.0038 47.6768 38.1932C47.1751 38.3826 46.7389 38.6383 46.3682 38.9602C45.9974 39.2822 45.6921 39.6705 45.4521 40.125C45.2122 40.5795 45.1032 41.053 45.125 41.5455V45.1818Z" fill="#222222"/>
<defs>
<filter id="filter0_d_60_153" x="0" y="0" width="111" height="102" filterUnits="userSpaceOnUse" color-interpolation-filters="sRGB">
<feFlood flood-opacity="0" result="BackgroundImageFix"/>
<feColorMatrix in="SourceAlpha" type="matrix" values="0 0 0 0 0 0 0 0 0 0 0 0 0 0 0 0 0 0 127 0" result="hardAlpha"/>
<feOffset dy="4"/>
<feGaussianBlur stdDeviation="2"/>
<feColorMatrix type="matrix" values="0 0 0 0 0 0 0 0 0 0 0 0 0 0 0 0 0 0 0.25 0"/>
<feBlend mode="normal" in2="BackgroundImageFix" result="effect1_dropShadow_60_153"/>
<feBlend mode="normal" in="SourceGraphic" in2="effect1_dropShadow_60_153" result="shape"/>
</filter>
</defs>
</svg>
