<svg width="111" height="102" viewBox="0 0 111 102" fill="none" xmlns="http://www.w3.org/2000/svg">
<g filter="url(#filter0_d_60_154)">
<ellipse cx="55.5" cy="47" rx="51.5" ry="47" fill="#FDF9F9"/>
</g>
<path d="M48.7753 50.0792C49.4011 50.3544 49.9934 50.6493 50.5521 50.9638C51.1109 51.2783 51.6585 51.642 52.1949 52.0548L49.4458 54.9443C48.2836 54.0794 46.9984 53.4209 45.5904 52.9688C44.1823 52.5167 42.7072 52.2906 41.165 52.2906C39.377 52.2906 37.7119 52.5855 36.1697 53.1752C34.6276 53.7649 33.2642 54.5708 32.0796 55.593C30.8951 56.6152 29.9675 57.8241 29.297 59.2197C28.6265 60.6154 28.2913 62.0798 28.2913 63.6131H24C24 62.1781 24.2235 60.7923 24.6705 59.4556C25.1175 58.1189 25.7545 56.8609 26.5815 55.6815C27.4084 54.502 28.403 53.4406 29.5652 52.497C30.7274 51.5535 32.0461 50.7476 33.5212 50.0792C31.8673 48.9981 30.5822 47.6614 29.6658 46.0692C28.7494 44.477 28.2913 42.7766 28.2913 40.9682C28.2913 39.4153 28.6265 37.9509 29.297 36.5749C29.9675 35.1989 30.8839 33.9998 32.0461 32.9776C33.2083 31.9555 34.5717 31.1397 36.1362 30.5303C37.7007 29.921 39.377 29.6261 41.165 29.6458C43.2212 29.6458 45.1545 30.0487 46.9649 30.8547C48.7753 31.6606 50.2951 32.7909 51.5244 34.2455C52.3737 32.7712 53.4577 31.4542 54.7763 30.2945C56.095 29.1347 57.5925 28.1813 59.2687 27.4344C57.6148 26.3532 56.3297 25.0166 55.4133 23.4243C54.4969 21.8321 54.0388 20.1318 54.0388 18.3233C54.0388 16.7704 54.374 15.306 55.0445 13.93C55.715 12.554 56.6314 11.3549 57.7936 10.3328C58.9558 9.31062 60.3192 8.49485 61.8837 7.88549C63.4482 7.27612 65.1245 6.98126 66.9125 7.00092C68.6782 7.00092 70.3433 7.29578 71.9078 7.88549C73.4723 8.4752 74.8357 9.28113 75.9979 10.3033C77.1601 11.3255 78.0877 12.5344 78.7805 13.93C79.4734 15.3257 79.8086 16.7901 79.7863 18.3233C79.7863 20.1318 79.3281 21.8321 78.4117 23.4243C77.4954 25.0166 76.2102 26.3532 74.5563 27.4344C76.0091 28.083 77.3166 28.8792 78.4788 29.8227C79.641 30.7662 80.6468 31.8277 81.4961 33.0071C82.3454 34.1865 82.9824 35.4446 83.407 36.7813C83.8317 38.1179 84.0552 39.5136 84.0775 40.9682H79.7863C79.7863 39.4153 79.451 37.9509 78.7805 36.5749C78.11 35.1989 77.1936 33.9998 76.0314 32.9776C74.8692 31.9555 73.4947 31.1397 71.9078 30.5303C70.3209 29.921 68.6558 29.6261 66.9125 29.6458C65.1245 29.6458 63.4594 29.9406 61.9172 30.5303C60.3751 31.1201 59.0117 31.926 57.8271 32.9482C56.6426 33.9703 55.715 35.1792 55.0445 36.5749C54.374 37.9705 54.0388 39.435 54.0388 40.9682C54.0388 42.7766 53.5806 44.477 52.6642 46.0692C51.7479 47.6614 50.4515 48.9981 48.7753 50.0792ZM58.33 18.3233C58.33 19.3652 58.5535 20.3382 59.0005 21.2424C59.4475 22.1466 60.0622 22.9526 60.8444 23.6602C61.6267 24.3679 62.5319 24.9084 63.56 25.2819C64.5881 25.6554 65.7056 25.852 66.9125 25.8716C68.0971 25.8716 69.2034 25.6751 70.2315 25.2819C71.2596 24.8888 72.176 24.3482 72.9806 23.6602C73.7852 22.9722 74.3999 22.1761 74.8245 21.2719C75.2492 20.3677 75.4727 19.3848 75.495 18.3233C75.495 17.2815 75.2715 16.3085 74.8245 15.4043C74.3775 14.5001 73.7629 13.6941 72.9806 12.9865C72.1984 12.2788 71.2932 11.7383 70.2651 11.3648C69.2369 10.9913 68.1194 10.7947 66.9125 10.7751C65.728 10.7751 64.6216 10.9716 63.5935 11.3648C62.5654 11.7579 61.649 12.2985 60.8444 12.9865C60.0398 13.6745 59.4252 14.4706 59.0005 15.3748C58.5759 16.279 58.3524 17.2619 58.33 18.3233ZM41.165 48.5165C42.3496 48.5165 43.4559 48.3199 44.484 47.9268C45.5121 47.5336 46.4285 46.9931 47.2331 46.3051C48.0377 45.6171 48.6523 44.821 49.077 43.9168C49.5017 43.0125 49.7252 42.0297 49.7475 40.9682C49.7475 39.9264 49.524 38.9534 49.077 38.0491C48.63 37.1449 48.0154 36.339 47.2331 35.6313C46.4508 34.9237 45.5457 34.3831 44.5175 34.0096C43.4894 33.6361 42.3719 33.4396 41.165 33.4199C39.9804 33.4199 38.8741 33.6165 37.846 34.0096C36.8179 34.4028 35.9015 34.9433 35.0969 35.6313C34.2923 36.3193 33.6777 37.1154 33.253 38.0197C32.8284 38.9239 32.6049 39.9067 32.5825 40.9682C32.5825 42.01 32.806 42.983 33.253 43.8873C33.7 44.7915 34.3147 45.5974 35.0969 46.3051C35.8792 47.0127 36.7844 47.5533 37.8125 47.9268C38.8406 48.3003 39.9581 48.4968 41.165 48.5165ZM88 57.9518L78.0094 66.7385L75.1598 64.2323L80.1551 59.8389H62.2525L67.2478 64.2617L64.3981 66.7385L54.4075 57.9518L64.3981 49.1652L67.2478 51.642L62.2525 56.0648H80.1551L75.1598 51.6714L78.0094 49.1652L88 57.9518Z" fill="#333333"/>
<defs>
<filter id="filter0_d_60_154" x="0" y="0" width="111" height="102" filterUnits="userSpaceOnUse" color-interpolation-filters="sRGB">
<feFlood flood-opacity="0" result="BackgroundImageFix"/>
<feColorMatrix in="SourceAlpha" type="matrix" values="0 0 0 0 0 0 0 0 0 0 0 0 0 0 0 0 0 0 127 0" result="hardAlpha"/>
<feOffset dy="4"/>
<feGaussianBlur stdDeviation="2"/>
<feColorMatrix type="matrix" values="0 0 0 0 0 0 0 0 0 0 0 0 0 0 0 0 0 0 0.25 0"/>
<feBlend mode="normal" in2="BackgroundImageFix" result="effect1_dropShadow_60_154"/>
<feBlend mode="normal" in="SourceGraphic" in2="effect1_dropShadow_60_154" result="shape"/>
</filter>
</defs>
</svg>
