<svg width="89" height="26" viewBox="0 0 89 26" fill="none" xmlns="http://www.w3.org/2000/svg">
<path d="M16.7143 3.14286H3.85714C1.72768 3.14286 0 4.87053 0 7V19.8571C0 21.9866 1.72768 23.7143 3.85714 23.7143H10.9821V15.7455H8.30357V12.6384H10.9821V10.3482C10.9821 7.69643 12.6161 6.25 14.9866 6.25C16.1116 6.25 17.0893 6.33036 17.3705 6.37053V9.14286L15.7366 9.15625C14.4375 9.15625 14.1964 9.75893 14.1964 10.6562V12.6384H17.2634L16.8616 15.7455H14.1964V23.7143H16.7143C18.8438 23.7143 20.5714 21.9866 20.5714 19.8571V7C20.5714 4.87053 18.8438 3.14286 16.7143 3.14286Z" fill="#FDF9F9"/>
<path d="M55.6964 7.89286C54.9196 8.22768 54.0759 8.46875 53.2054 8.5625C54.1027 8.02678 54.7857 7.18303 55.1071 6.17857C54.2768 6.67411 53.3393 7.03571 52.3616 7.22321C51.5714 6.37946 50.4464 5.85714 49.2009 5.85714C46.8036 5.85714 44.875 7.79911 44.875 10.183C44.875 10.5179 44.9152 10.8527 44.9821 11.1741C41.3929 10.9866 38.192 9.27232 36.0625 6.64732C35.6875 7.29018 35.4732 8.02678 35.4732 8.83036C35.4732 10.3304 36.2366 11.6562 37.4018 12.433C36.692 12.4062 36.0223 12.2054 35.4464 11.8839C35.4464 11.8973 35.4464 11.9241 35.4464 11.9375C35.4464 14.0402 36.933 15.7812 38.9152 16.183C38.5536 16.2768 38.1652 16.3304 37.7768 16.3304C37.4955 16.3304 37.2277 16.3036 36.9598 16.2634C37.5089 17.9777 39.1027 19.2232 41.0045 19.2634C39.5179 20.4286 37.6562 21.1116 35.6339 21.1116C35.2723 21.1116 34.9375 21.0982 34.5893 21.058C36.5045 22.2902 38.7813 23 41.2321 23C49.1875 23 53.5402 16.4107 53.5402 10.692C53.5402 10.5045 53.5402 10.317 53.5268 10.1295C54.3705 9.51339 55.1071 8.75 55.6964 7.89286Z" fill="#FDF9F9"/>
<path d="M81.7143 12.4286C81.7143 14.317 80.1741 15.8571 78.2857 15.8571C76.3973 15.8571 74.8571 14.317 74.8571 12.4286C74.8571 10.5402 76.3973 9 78.2857 9C80.1741 9 81.7143 10.5402 81.7143 12.4286ZM83.5625 12.4286C83.5625 9.50893 81.2054 7.15178 78.2857 7.15178C75.3661 7.15178 73.0089 9.50893 73.0089 12.4286C73.0089 15.3482 75.3661 17.7054 78.2857 17.7054C81.2054 17.7054 83.5625 15.3482 83.5625 12.4286ZM85.0089 6.9375C85.0089 6.25446 84.4598 5.70536 83.7768 5.70536C83.0938 5.70536 82.5446 6.25446 82.5446 6.9375C82.5446 7.62053 83.0938 8.16964 83.7768 8.16964C84.4598 8.16964 85.0089 7.62053 85.0089 6.9375ZM78.2857 3.99107C79.7857 3.99107 83 3.87053 84.3527 4.40625C84.8214 4.59375 85.1696 4.82143 85.5313 5.18303C85.8929 5.54464 86.1205 5.89286 86.308 6.36161C86.8438 7.71428 86.7232 10.9286 86.7232 12.4286C86.7232 13.9286 86.8438 17.1429 86.308 18.4955C86.1205 18.9643 85.8929 19.3125 85.5313 19.6741C85.1696 20.0357 84.8214 20.2634 84.3527 20.4509C83 20.9866 79.7857 20.8661 78.2857 20.8661C76.7857 20.8661 73.5714 20.9866 72.2188 20.4509C71.75 20.2634 71.4018 20.0357 71.0402 19.6741C70.6786 19.3125 70.4509 18.9643 70.2634 18.4955C69.7277 17.1429 69.8482 13.9286 69.8482 12.4286C69.8482 10.9286 69.7277 7.71428 70.2634 6.36161C70.4509 5.89286 70.6786 5.54464 71.0402 5.18303C71.4018 4.82143 71.75 4.59375 72.2188 4.40625C73.5714 3.87053 76.7857 3.99107 78.2857 3.99107ZM88.5714 12.4286C88.5714 11.0089 88.5848 9.60268 88.5045 8.18303C88.4241 6.53571 88.0491 5.07589 86.8438 3.87053C85.6384 2.66518 84.1786 2.29018 82.5312 2.20982C81.1116 2.12946 79.7054 2.14286 78.2857 2.14286C76.8661 2.14286 75.4598 2.12946 74.0402 2.20982C72.3929 2.29018 70.933 2.66518 69.7277 3.87053C68.5223 5.07589 68.1473 6.53571 68.067 8.18303C67.9866 9.60268 68 11.0089 68 12.4286C68 13.8482 67.9866 15.2545 68.067 16.6741C68.1473 18.3214 68.5223 19.7812 69.7277 20.9866C70.933 22.192 72.3929 22.567 74.0402 22.6473C75.4598 22.7277 76.8661 22.7143 78.2857 22.7143C79.7054 22.7143 81.1116 22.7277 82.5312 22.6473C84.1786 22.567 85.6384 22.192 86.8438 20.9866C88.0491 19.7812 88.4241 18.3214 88.5045 16.6741C88.5848 15.2545 88.5714 13.8482 88.5714 12.4286Z" fill="#FDF9F9"/>
</svg>
